<?xml version='1.0' encoding='iso-8859-1'?>
<svg version="1.1" xmlns="http://www.w3.org/2000/svg" viewBox="0 0 462.992 462.992" xmlns:xlink="http://www.w3.org/1999/xlink" enable-background="new 0 0 462.992 462.992">
  <path d="m423.356,207.73c-0.67-0.394-1.36-0.729-2.063-1.015l-25.741-81.88c-3.789-12.052-13.206-21.631-25.19-25.626l-48.465-16.154c-6.095-2.031-12.442-3.062-18.87-3.062-3.823,0-7.034,2.875-7.454,6.675-0.424,3.832-1.189,7.547-2.241,11.131l-54.336-23.254v-6.415c0-9.522-5.416-17.914-13.798-21.38-7.217-2.983-11.301-10.513-9.933-18.31 1.141-6.496 6.683-12.038 13.178-13.178 5.005-0.881 9.854,0.396 13.654,3.586 3.749,3.148 5.898,7.756 5.898,12.644 0,4.142 3.357,7.5 7.5,7.5s7.5-3.358 7.5-7.5c0-9.331-4.102-18.126-11.252-24.131-7.146-6.002-16.582-8.504-25.895-6.874-12.701,2.229-23.128,12.657-25.357,25.358-2.595,14.778 5.209,29.075 18.976,34.766 2.708,1.12 4.528,4.141 4.528,7.518v6.421l-54.315,23.321c-1.063-3.606-1.834-7.346-2.261-11.204-0.42-3.8-3.637-6.675-7.46-6.675-6.423,0-12.771,1.03-18.866,3.062l-48.463,16.154c-11.985,3.995-21.402,13.575-25.189,25.626l-25.742,81.88c-0.703,0.286-1.393,0.621-2.063,1.015-4.784,2.814-7.64,7.809-7.64,13.359v13.697c0,5.625 3.055,10.817 7.973,13.549l64.027,35.571v131.587c0,5.827 3.235,10.908 8,13.555v18.445c0,8.547 6.953,15.5 15.5,15.5h208c8.547,0 15.5-6.953 15.5-15.5v-18.445c4.765-2.647 8-7.728 8-13.555v-131.587l64.027-35.571c4.918-2.732 7.973-7.924 7.973-13.549v-13.697c0-5.55-2.855-10.544-7.64-13.358zm-17.208,.821l-47.152,26.195v-32.767c0-6.027 1.105-11.931 3.286-17.548l20.046-51.648 23.82,75.768zm-174.647-120.899l55.955,23.947c-11.168,19.498-32.158,32.392-55.96,32.392-23.776,0-44.746-12.865-55.924-32.326l55.929-24.013zm-85.664,9.632c2.545-0.848 5.147-1.463 7.787-1.841 7.437,36.695 39.731,63.549 77.872,63.549s70.436-26.855 77.872-63.549c2.639,0.378 5.242,0.993 7.786,1.841l8.476,2.825c-4.41,20.199-15.246,38.582-30.977,52.271-17.499,15.226-39.928,23.611-63.157,23.611-23.229,0-45.658-8.385-63.156-23.611-15.731-13.689-26.567-32.072-30.977-52.272l8.474-2.824zm-48.463,16.155l25.683-8.561c5.307,22.724 17.674,43.364 35.436,58.819 20.229,17.602 46.155,27.296 73.003,27.296 26.849,0 52.774-9.694 73.003-27.295 17.762-15.455 30.129-36.096 35.437-58.819l25.682,8.561c2.451,0.817 4.724,2.017 6.761,3.519l-24.082,62.045c-2.854,7.354-4.302,15.085-4.302,22.976v45.514 32 136c0,0.276-0.225,0.5-0.5,0.5h-224c-0.275,0-0.5-0.224-0.5-0.5v-136-32-45.514c0-7.891-1.447-15.622-4.302-22.976l-24.082-62.045c2.039-1.503 4.312-2.703 6.763-3.52zm-16.709,19.346l20.045,51.646c2.181,5.617 3.286,11.521 3.286,17.548v32.767l-47.152-26.195 23.821-75.766zm-33.411,102.437c-0.159-0.088-0.258-0.256-0.258-0.437v-13.697c0-0.09 0.005-0.216 0.126-0.336 0.125,0.006 0.251,0.029 0.376,0.029 0.14,0 0.275-0.025 0.414-0.033l56.084,31.158v14.84l-56.742-31.524zm288.242,212.77h-208c-0.275,0-0.5-0.224-0.5-0.5v-16.5h209v16.5c0,0.276-0.224,0.5-0.5,0.5zm80.5-213.207c0,0.181-0.099,0.349-0.258,0.437l-56.742,31.523v-14.84l56.063-31.146c0.272,0.016 0.546,0.016 0.822,0.002 0.112,0.118 0.115,0.24 0.115,0.327v13.697z"/>
</svg>
