<?xml version="1.0" encoding="iso-8859-1"?>
<!-- Generator: Adobe Illustrator 16.0.0, SVG Export Plug-In . SVG Version: 6.00 Build 0)  -->
<!DOCTYPE svg PUBLIC "-//W3C//DTD SVG 1.1//EN" "http://www.w3.org/Graphics/SVG/1.1/DTD/svg11.dtd">
<svg version="1.1" id="Capa_1" xmlns="http://www.w3.org/2000/svg" xmlns:xlink="http://www.w3.org/1999/xlink" x="0px" y="0px"
	 width="948px" height="948px" viewBox="0 0 948 948" style="enable-background:new 0 0 948 948;" xml:space="preserve">
<g>
	<g>
		<path d="M193.15,948H754.85c27.602,0,50-22.4,50-50V50c0-27.6-22.398-50-50-50H193.15c-27.6,0-50,22.4-50,50v848
			C143.15,925.6,165.55,948,193.15,948z M552.051,866.2c0,13.8-11.201,25-25,25h-106c-13.8,0-25-11.2-25-25v-10.8
			c0-13.801,11.2-25,25-25h106c13.799,0,25,11.199,25,25V866.2z M229.15,140.5h489.9v636.9h-489.9V140.5z"/>
		<path d="M585.75,426h-75.699v-94.1h70.4c19.299,0,35-15.7,35-35c0-19.3-15.701-35-35-35h-70.4v-48.3c0-19.3-15.701-35-35-35
			c-19.3,0-35,15.7-35,35v48.3h-79.3c-19.3,0-35,15.7-35,35V461c0,19.3,15.7,35,35,35h79.3v94.1h-76.4c-19.3,0-35,15.7-35,35
			c0,19.301,15.7,35,35,35h76.4V708.4c0,19.3,15.7,35,35,35c19.299,0,35-15.7,35-35V660.1h75.699c19.301,0,35-15.699,35-35V461
			C620.75,441.7,605.15,426,585.75,426z M440.05,426h-44.3v-94.1h44.3V426z M550.75,590.1h-40.699V496h40.699V590.1z"/>
	</g>
</g>
<g>
</g>
<g>
</g>
<g>
</g>
<g>
</g>
<g>
</g>
<g>
</g>
<g>
</g>
<g>
</g>
<g>
</g>
<g>
</g>
<g>
</g>
<g>
</g>
<g>
</g>
<g>
</g>
<g>
</g>
</svg>
